<?xml version="1.0" standalone="no"?>
<!DOCTYPE svg PUBLIC "-//W3C//DTD SVG 20010904//EN"
 "http://www.w3.org/TR/2001/REC-SVG-20010904/DTD/svg10.dtd">
<svg version="1.0" xmlns="http://www.w3.org/2000/svg"
 width="460.000000pt" height="460.000000pt" viewBox="0 0 460.000000 460.000000"
 preserveAspectRatio="xMidYMid meet">
<metadata>
Created by potrace 1.14, written by Peter Selinger 2001-2017
</metadata>
<g transform="translate(0.000000,460.000000) scale(0.100000,-0.100000)"
fill="#000000" stroke="none">
<path d="M1390 4561 c-252 -113 -452 -280 -623 -523 -29 -41 -120 -215 -136
-260 -6 -17 -26 -35 -51 -48 -62 -32 -98 -72 -119 -131 -22 -67 -18 -127 14
-194 24 -49 24 -51 9 -145 -7 -52 -17 -122 -20 -155 -3 -33 -7 -70 -9 -83 -12
-74 -19 -224 -19 -417 0 -198 4 -303 20 -490 2 -33 6 -94 9 -135 2 -41 7 -131
11 -200 15 -264 1 -542 -36 -690 -5 -19 -11 -51 -13 -70 -11 -75 -49 -230 -83
-338 -45 -146 -85 -237 -219 -502 -10 -19 -25 -44 -35 -55 -18 -22 -70 -110
-70 -119 0 -3 1031 -6 2290 -6 l2290 0 -1 198 0 197 -49 75 c-92 142 -215 415
-258 571 -18 66 -28 116 -47 229 -12 78 -16 219 -20 750 -2 305 -6 582 -9 615
-21 236 -43 419 -61 490 -8 33 -17 74 -20 92 -27 161 -97 403 -150 520 -75
165 -162 328 -184 343 -3 3 -29 36 -55 74 -103 145 -339 340 -509 419 l-58 27
-852 0 -852 0 -85 -39z"/>
</g>
</svg>
